<svg id="Layer_1" data-name="Layer 1" xmlns="http://www.w3.org/2000/svg" viewBox="0 0 395.85 129.92"><defs><style>.cls-1{fill:#001970;}.cls-2{fill:#e31837;}.cls-3{fill:#7dc242;}.cls-4{fill:#231f20;}</style></defs><title>logo</title><path class="cls-1" d="M263.85,711.54H204.61V608h61.18a19.78,19.78,0,0,0-.58,9.75c0.79,3.43.79,3.16,0,3.82s-0.92,0-2.37-.4a26.67,26.67,0,0,0-3.43-.66c-1.58-.27-7.24-2.24-13.7-1.58s-17.92,5.8-22.53,21.74c-2.68,9.25-2.64,15.68,3.43,26.62S237,693.8,243.87,700.2c5.8,5.4,8.83,5.67,14.36,4.08,1.85-.52,4.08-0.27,5-0.92s2.37-2,3-1.58-0.53.92-1.19,3.69-1.23,6.07-1.23,6.07" transform="translate(-204.61 -581.62)"/><path class="cls-2" d="M292.28,608h41.06V711.54H273.07a32.36,32.36,0,0,0-1.66-5.54c-0.92-2-1.32-2.9-.4-4s1.85-2.24,3.82-.4,5.93,2.77,7.64,2.9,2.9,0.79,4.87.53,5.14-1.05,6.06-2.5,3.29-2.64,5-6.33A88.79,88.79,0,0,0,304.35,682a90.34,90.34,0,0,1,8-17.52c2.11-3.69,6.19-8.69,5.67-19.37s-2.9-13.31-5.93-17.52a21,21,0,0,0-10.28-8.17c-4.22-1.58-15.14-3.1-18.84-2.9a7,7,0,0,0-3.82,1.19,11.72,11.72,0,0,1,4.35-3.29c2.9-1.32,2.63-2,4.61-3a19.51,19.51,0,0,0,4.14-3.42" transform="translate(-204.61 -581.62)"/><path class="cls-3" d="M270.75,618.38c0.92,0.53,3.29-1.05,4.08-2.11s6.85-5.14,8.3-5.93,6.19-2.64,8.43-7.64,2.63-9.49,3.43-12.12,1.84-5.8,2.76-6.85a2,2,0,0,0,.4-2.11,11.87,11.87,0,0,1-4.22,1.05c-2.77.26-15,7.25-21.61,19.63-1.44,2.71-1.8,5.32-2.54,9.2-0.89,4.65.34,6.52,1,6.88" transform="translate(-204.61 -581.62)"/><path class="cls-1" d="M370.78,645.85c-9.86-4-14.71-9.26-14.71-18.83,0-10.3,9.56-19.12,20.6-19.12,9.13,0,15.47,3.68,18.42,7.36l-6.64,8.09c-4.42-4.41-7.07-5.44-11.78-5.44s-10.3,3.24-10.3,9.12,5.15,7.94,10.3,10l5.88,2.5c6.64,2.79,14,7.35,14,18.38,0,11.47-10.77,20.58-22.11,20.58-8.83,0-15.44-3.67-20.6-9.56l6.91-8.38c4.12,5.44,8.83,7.94,13.68,7.94,6.32,0,11.77-4,11.77-9.85s-4-8.09-9.27-10.29Z" transform="translate(-204.61 -581.62)"/><path class="cls-1" d="M433.75,607.9c10.16,0,17.37,3.68,23.25,11.77l-7.8,6.91q-5.29-8.38-15.45-8.39c-11.9,0-17.49,13.1-17.49,25s5.59,25,17.49,25q10.16,0,15.45-8.37l7.8,6.9c-5.88,8.1-13.1,11.76-23.25,11.76-17.49,0-28.07-16.46-28.07-35.28s10.58-35.31,28.07-35.31" transform="translate(-204.61 -581.62)"/><path class="cls-1" d="M513.32,647.91c0,9.72,3.53,16.46,11.18,22.35l-7.65,7.64c-2.64-1.61-6.91-6.77-9.41-11-3.53,6.77-11.91,11.62-19.85,11.62-12.21,0-21.49-8.68-21.49-22,0-14.57,10-22.07,25.9-22.07h11c0-9.28-4.71-16.48-14-16.48a12.14,12.14,0,0,0-8.54,3.54l-6.18-8c4.57-3.82,8.69-5.58,14.72-5.58,15.3,0,24.27,11.92,24.27,25.75v14.27Zm-10.29,0v-4.26H492c-11,0-15.29,5-15.29,12.81,0,6.76,5.44,12,10.89,12,10.59,0,16.18-12.19,16.18-12.19a77.31,77.31,0,0,1-.73-8.4" transform="translate(-204.61 -581.62)"/><path class="cls-1" d="M535.24,638.55c0-9.71,0-28,0-28l10.21-.07,0,7.63s8.92-10.42,20.46-10.43c11.19,0,19.42,8.54,19.42,21v48.38H575V630.16c0-6.33-4.11-11.32-11.47-11.32-11.18,0-17.95,15.45-17.95,15.45v42.79H535.24V638.55Z" transform="translate(-204.61 -581.62)"/><polygon class="cls-4" points="153.82 121.81 153.82 129.58 151.68 129.58 151.68 112.18 153.82 112.18 153.82 119.67 160.67 119.67 160.67 112.18 162.81 112.18 162.81 129.58 160.67 129.58 160.67 121.81 153.82 121.81"/><polygon class="cls-4" points="178.12 127.44 184.07 127.44 184.07 129.58 175.98 129.58 175.98 112.19 183.78 112.19 183.78 114.33 178.12 114.33 178.12 119.38 182.91 119.38 182.91 121.52 178.12 121.52 178.12 127.44"/><path class="cls-4" d="M401.67,711.49l-2.15-.63,6.23-17.05h1.51l6.24,17.05-2.15.63-1.42-4.09h-6.84Zm4.84-14-2.69,7.77h5.39Z" transform="translate(-204.61 -581.62)"/><polygon class="cls-4" points="222.87 127.44 228.66 127.44 228.66 129.58 220.72 129.58 220.72 112.19 222.87 112.19 222.87 127.44"/><polygon class="cls-4" points="245.78 129.58 243.63 129.58 243.63 114.33 239.28 114.33 239.28 112.19 250.12 112.19 250.12 114.33 245.78 114.33 245.78 129.58"/><polygon class="cls-4" points="264.16 121.81 264.16 129.58 262.01 129.58 262.01 112.18 264.16 112.18 264.16 119.67 271 119.67 271 112.18 273.15 112.18 273.15 129.58 271 129.58 271 121.81 264.16 121.81"/><path class="cls-4" d="M510.38,693.8a5.82,5.82,0,1,1,0,11.6h-1.68v5.8h-2.15V693.8h3.83ZM508.69,696v7.31h1.68a3.67,3.67,0,1,0,0-7.31h-1.68Z" transform="translate(-204.61 -581.62)"/><polygon class="cls-4" points="326.3 127.44 332.1 127.44 332.1 129.58 324.15 129.58 324.15 112.19 326.3 112.19 326.3 127.44"/><path class="cls-4" d="M549.41,711.49l-2.15-.63,6.23-17.05H555l6.24,17.05-2.15.63-1.42-4.09h-6.84Zm4.84-14-2.7,7.77h5.39Z" transform="translate(-204.61 -581.62)"/><polygon class="cls-4" points="378.61 129.58 370.61 116.54 370.61 129.58 368.46 129.58 368.46 112.19 370.61 112.19 378.61 125.24 378.61 112.19 380.75 112.19 380.75 129.58 378.61 129.58"/><path class="cls-4" d="M268.9,630.11c-0.14-.92,1.45.13,1.45,1.71s0.66,1.71.66,3.69,0.39,7.12,0,8.57a9.85,9.85,0,0,0-.53,3.16c0,1.19-.13,17.79-0.13,21.48s0.26,4.88-.26,6.32,0.26,2.11-.53,3.69v10a1.21,1.21,0,0,0-.79,1.19c-0.13,1.05-.66,1.44-1.45.66s-0.92-.79-0.79-2.63,0.4-2.11-.13-3.56-0.39-6.19-.39-8.56,1.45-10.14,1.32-11.33,0.79-14.1.53-17.13a56.64,56.64,0,0,1,.26-8.7c0.13-1.58,1.19-6.06.79-8.56" transform="translate(-204.61 -581.62)"/><path class="cls-4" d="M274.83,645c-0.16,3.16.13,5.53,1.32,6.46s2.24-.4,3.69-1.45,4.87-4.35,5.66-6.72,1.71-4,1.05-5.27-2.77-2.77-3.69-2-7.9,6.33-8,9" transform="translate(-204.61 -581.62)"/><path class="cls-4" d="M275.76,659.22c0.26,0.92,0,1.45.53,2.63A26.61,26.61,0,0,1,277.6,667c0.26,1.58,3.43,4.22,4.88,4.22h3c1.58,0,2.9.13,3.56-.53s0.79-.92,1.58-0.92-1.19-1.71-1.85-2.5,0.4-.92.79-0.92,0.92-.79-0.92-2.24-5.4-3.82-7.91-4.22-5.27-1.58-5-.66" transform="translate(-204.61 -581.62)"/><path class="cls-4" d="M245.06,652.64c2.65,0.8,2.37,1.19,4.08.79a15.76,15.76,0,0,1,4.35-.66c0.92,0.13,1.05.13,2.11-.66s3.29-.4,2.11-2.37-5.4-5.27-9.75-4.87-6.06,1.32-5.93,1.85-0.79,0,.13,1.18,1.58,4.35,2.9,4.75" transform="translate(-204.61 -581.62)"/><path class="cls-4" d="M259.95,666.34c-0.13-.53.4-2.24-0.79-2A19.89,19.89,0,0,0,249,670.29c-3.06,3.63-3,4.08-2.37,5.14s0.53,1.71,1.32,1.58a1.74,1.74,0,0,1,1.84.53c0.79,0.66.92,1.85,2.77,1.05s2.9-1.05,3.56-1.84,2.11-1.19,3.29-2.64,4.48-4.48.53-7.77" transform="translate(-204.61 -581.62)"/><path class="cls-4" d="M600.46,706.73a4.35,4.35,0,1,1-4.35-4.35,4.35,4.35,0,0,1,4.35,4.35m-4.35,3.44a3.44,3.44,0,1,0-3.44-3.44,3.46,3.46,0,0,0,3.44,3.44m1.06-1.2-1.27-1.63h-0.22v1.51H594.8v-4.39h1.13a1.53,1.53,0,0,1,1.63,1.45,1.32,1.32,0,0,1-.82,1.23l1.17,1.41Zm-1.23-2.49a0.67,0.67,0,0,0,.75-0.57,0.62,0.62,0,0,0-.75-0.59h-0.26v1.16h0.26Z" transform="translate(-204.61 -581.62)"/></svg>